<?xml version="1.0" encoding="utf-8"?>
<svg xmlns="http://www.w3.org/2000/svg" style="margin: auto; background: rgb(241, 242, 243); display: block; shape-rendering: auto;" width="280" height="250" preserveAspectRatio="xMidYMid">
<style type="text/css">
  text {
    text-anchor: middle; font-size: 80px; opacity: 0;
  }
</style>
<g style="transform-origin:140px 125px;transform:scale(1)">
<g transform="translate(140,125)">
  <g transform="translate(0,0)"><g class="path" style="transform: scale(0.91); transform-origin: -69.36px -6.42944px; animation: 1s linear -0.528s infinite normal forwards running breath-1379629d-c9e9-4ebc-a746-a464bb6c739d;"><path d="M38.96-54.16L48.72-55.36L47.68-20.80L48.56-1.76L39.12 0.24L15.28-38.32L15.28-20.80L16.40 0L6.40 0L7.36-19.44L6.40-54.96L16-55.44L39.76-16.32L38.96-54.16" fill="#554994" stroke="none" stroke-width="none" transform="translate(-96.9200382232666,21.17055546569825)" style="fill: rgb(85, 73, 148);"></path></g><g class="path" style="transform: scale(0.91); transform-origin: -20.92px -6.42945px; animation: 1s linear -0.396s infinite normal forwards running breath-1379629d-c9e9-4ebc-a746-a464bb6c739d;"><path d="M90.48-55.20L89.60-46.64L72.56-46.64L72.08-31.92L87.36-31.92L86.48-23.44L71.84-23.44L71.76-20.80L72.72 0L61.52 0L62.48-19.44L61.52-55.20L90.48-55.20" fill="#554994" stroke="none" stroke-width="none" transform="translate(-96.9200382232666,21.17055546569825)" style="fill: rgb(85, 73, 148);"></path></g><g class="path" style="transform: scale(0.91); transform-origin: 13px -6.42945px; animation: 1s linear -0.264s infinite normal forwards running breath-1379629d-c9e9-4ebc-a746-a464bb6c739d;"><path d="M104.64-47.12L90.48-46L91.36-55.20L129.36-55.20L128.48-46L114.56-47.20L114.24-20.80L115.20 0L104 0L104.96-19.44L104.64-47.12" fill="#554994" stroke="none" stroke-width="none" transform="translate(-96.9200382232666,21.17055546569825)" style="fill: rgb(85, 73, 148);"></path></g><g class="path" style="transform: scale(0.91); transform-origin: 50.16px 1.01056px; animation: 1s linear -0.132s infinite normal forwards running breath-1379629d-c9e9-4ebc-a746-a464bb6c739d;"><path d="M148.40-8.16L148.40-8.16L148.40-8.16Q150.72-8.16 153.28-9.36L153.28-9.36L153.28-9.36Q155.84-10.56 157.28-11.76L157.28-11.76L158.72-12.96L162.40-8.48L162.40-8.48Q161.60-7.12 159.92-5.36L159.92-5.36L159.92-5.36Q158.24-3.60 156.52-2.36L156.52-2.36L156.52-2.36Q154.80-1.12 151.96-0.12L151.96-0.12L151.96-0.12Q149.12 0.88 146.08 0.88L146.08 0.88L146.08 0.88Q139.60 0.88 135.52-4.04L135.52-4.04L135.52-4.04Q131.44-8.96 131.44-16.72L131.44-16.72L131.44-16.72Q131.44-26.48 137.12-33.84L137.12-33.84L137.12-33.84Q142.80-41.20 150.40-41.20L150.40-41.20L150.40-41.20Q156.24-41.20 159.48-37.92L159.48-37.92L159.48-37.92Q162.72-34.64 162.72-28.72L162.72-28.72L162.72-28.72Q162.72-25.20 161.52-20.72L161.52-20.72L159.92-19.04L139.92-17.20L139.92-17.20Q141.28-8.16 148.40-8.16zM148.40-32.96L148.40-32.96L148.40-32.96Q144.88-32.96 142.48-30.12L142.48-30.12L142.48-30.12Q140.08-27.28 139.68-22.88L139.68-22.88L153.28-24.56L153.28-24.56Q153.52-26.40 153.52-27.60L153.52-27.60L153.52-27.60Q153.52-32.96 148.40-32.96" fill="#554994" stroke="none" stroke-width="none" transform="translate(-96.9200382232666,21.17055546569825)" style="fill: rgb(85, 73, 148);"></path></g><g class="path" style="transform: scale(0.91); transform-origin: 86.68px 0.690556px; animation: 1s linear 0s infinite normal forwards running breath-1379629d-c9e9-4ebc-a746-a464bb6c739d;"><path d="M177.68 0L177.68 0Q172.96 0 169.96-3L169.96-3L169.96-3Q166.96-6 166.96-11.08L166.96-11.08L166.96-11.08Q166.96-16.16 171.60-19.88L171.60-19.88L171.60-19.88Q176.24-23.60 182.88-23.60L182.88-23.60L188.32-23.60L188.32-24.96L188.32-24.96Q188.32-28.88 186.72-30.32L186.72-30.32L186.72-30.32Q185.12-31.76 180.72-31.76L180.72-31.76L180.72-31.76Q178.88-31.76 176.36-31L176.36-31L176.36-31Q173.84-30.24 170.72-28.64L170.72-28.64L168.40-34.96L168.40-34.96Q171.84-37.36 176.76-39.28L176.76-39.28L176.76-39.28Q181.68-41.20 184.88-41.20L184.88-41.20L184.88-41.20Q197.44-41.20 197.44-29.04L197.44-29.04L197.44-13.36L197.44-13.36Q197.44-8.88 200.24-3.36L200.24-3.36L191.76 0.24L191.76 0.24Q189.76-3.60 188.80-6.64L188.80-6.64L188.80-6.64Q184.40 0 177.68 0L177.68 0zM181.04-8.16L181.04-8.16L181.04-8.16Q184.24-8.16 188.32-11.44L188.32-11.44L188.32-16.80L188.32-16.80Q184.08-17.76 181.44-17.76L181.44-17.76L181.44-17.76Q176.40-17.76 176.40-13.28L176.40-13.28L176.40-13.28Q176.40-10.96 177.68-9.56L177.68-9.56L177.68-9.56Q178.96-8.16 181.04-8.16" fill="#554994" stroke="none" stroke-width="none" transform="translate(-96.9200382232666,21.17055546569825)" style="fill: rgb(85, 73, 148);"></path></g></g>
</g>
</g>
<style id="breath-1379629d-c9e9-4ebc-a746-a464bb6c739d" data-anikit="">@keyframes breath-1379629d-c9e9-4ebc-a746-a464bb6c739d
{
  0% {
    animation-timing-function: cubic-bezier(0.9647,0.2413,-0.0705,0.7911);
    transform: scale(0.9099999999999999);
  }
  51% {
    animation-timing-function: cubic-bezier(0.9226,0.2631,-0.0308,0.7628);
    transform: scale(1.02994);
  }
  100% {
    transform: scale(0.9099999999999999);
  }
}</style></svg>